<mxfile host="Electron" modified="2024-01-10T08:11:58.383Z" agent="Mozilla/5.0 (Windows NT 10.0; Win64; x64) AppleWebKit/537.36 (KHTML, like Gecko) draw.io/22.1.11 Chrome/114.0.5735.289 Electron/25.9.8 Safari/537.36" etag="sE6VhcYjwNRSuryj39gL" version="22.1.11" type="device">
  <diagram name="第 1 页" id="flICLph34noXzrBmj6sp">
    <mxGraphModel dx="1418" dy="828" grid="1" gridSize="10" guides="1" tooltips="1" connect="1" arrows="1" fold="1" page="1" pageScale="1" pageWidth="827" pageHeight="1169" math="0" shadow="0">
      <root>
        <mxCell id="0" />
        <mxCell id="1" parent="0" />
        <mxCell id="zIs3JP2xhRvC47rHNW2N-1" value="获取资源" style="text;html=1;strokeColor=none;fillColor=none;align=center;verticalAlign=middle;whiteSpace=wrap;rounded=0;" vertex="1" parent="1">
          <mxGeometry x="10" y="310" width="60" height="30" as="geometry" />
        </mxCell>
        <mxCell id="zIs3JP2xhRvC47rHNW2N-2" value="" style="html=1;shadow=0;dashed=0;align=center;verticalAlign=middle;shape=mxgraph.arrows2.arrow;dy=0.6;dx=40;notch=0;" vertex="1" parent="1">
          <mxGeometry x="80" y="290" width="100" height="70" as="geometry" />
        </mxCell>
        <mxCell id="zIs3JP2xhRvC47rHNW2N-3" value="资源加载工厂" style="text;html=1;strokeColor=none;fillColor=none;align=center;verticalAlign=middle;whiteSpace=wrap;rounded=0;" vertex="1" parent="1">
          <mxGeometry x="200" y="310" width="80" height="30" as="geometry" />
        </mxCell>
        <mxCell id="zIs3JP2xhRvC47rHNW2N-4" value="" style="html=1;shadow=0;dashed=0;align=center;verticalAlign=middle;shape=mxgraph.arrows2.twoWayArrow;dy=0.65;dx=22;" vertex="1" parent="1">
          <mxGeometry x="300" y="295" width="100" height="60" as="geometry" />
        </mxCell>
        <mxCell id="zIs3JP2xhRvC47rHNW2N-5" value="是否已经加载" style="strokeWidth=2;html=1;shape=mxgraph.flowchart.decision;whiteSpace=wrap;" vertex="1" parent="1">
          <mxGeometry x="430" y="275" width="100" height="100" as="geometry" />
        </mxCell>
        <mxCell id="zIs3JP2xhRvC47rHNW2N-6" value="" style="html=1;shadow=0;dashed=0;align=center;verticalAlign=middle;shape=mxgraph.arrows2.twoWayArrow;dy=0.65;dx=22;" vertex="1" parent="1">
          <mxGeometry x="560" y="295" width="100" height="60" as="geometry" />
        </mxCell>
        <mxCell id="zIs3JP2xhRvC47rHNW2N-7" value="是" style="text;html=1;align=center;verticalAlign=middle;resizable=0;points=[];autosize=1;strokeColor=none;fillColor=none;" vertex="1" parent="1">
          <mxGeometry x="590" y="278" width="40" height="30" as="geometry" />
        </mxCell>
        <mxCell id="zIs3JP2xhRvC47rHNW2N-8" value="资源管理容器" style="text;html=1;strokeColor=none;fillColor=none;align=center;verticalAlign=middle;whiteSpace=wrap;rounded=0;" vertex="1" parent="1">
          <mxGeometry x="690" y="310" width="60" height="30" as="geometry" />
        </mxCell>
        <mxCell id="zIs3JP2xhRvC47rHNW2N-9" value="" style="html=1;shadow=0;dashed=0;align=center;verticalAlign=middle;shape=mxgraph.arrows2.arrow;dy=0.6;dx=40;direction=south;notch=0;" vertex="1" parent="1">
          <mxGeometry x="445" y="400" width="70" height="100" as="geometry" />
        </mxCell>
        <mxCell id="zIs3JP2xhRvC47rHNW2N-10" value="否" style="text;html=1;align=center;verticalAlign=middle;resizable=0;points=[];autosize=1;strokeColor=none;fillColor=none;" vertex="1" parent="1">
          <mxGeometry x="430" y="418" width="40" height="30" as="geometry" />
        </mxCell>
        <mxCell id="zIs3JP2xhRvC47rHNW2N-11" value="加载资源" style="shape=parallelogram;html=1;strokeWidth=2;perimeter=parallelogramPerimeter;whiteSpace=wrap;rounded=1;arcSize=12;size=0.23;" vertex="1" parent="1">
          <mxGeometry x="430" y="520" width="100" height="60" as="geometry" />
        </mxCell>
        <mxCell id="zIs3JP2xhRvC47rHNW2N-12" value="" style="html=1;shadow=0;dashed=0;align=center;verticalAlign=middle;shape=mxgraph.arrows2.twoWayArrow;dy=0.65;dx=22;direction=south;" vertex="1" parent="1">
          <mxGeometry x="450" y="600" width="60" height="100" as="geometry" />
        </mxCell>
        <mxCell id="zIs3JP2xhRvC47rHNW2N-13" value="资源" style="text;html=1;align=center;verticalAlign=middle;resizable=0;points=[];autosize=1;strokeColor=none;fillColor=none;" vertex="1" parent="1">
          <mxGeometry x="455" y="708" width="50" height="30" as="geometry" />
        </mxCell>
        <mxCell id="zIs3JP2xhRvC47rHNW2N-14" value="" style="html=1;shadow=0;dashed=0;align=center;verticalAlign=middle;shape=mxgraph.arrows2.bendArrow;dy=15;dx=38;notch=0;arrowHead=55;rounded=1;direction=north;flipH=1;flipV=0;" vertex="1" parent="1">
          <mxGeometry x="570" y="380" width="180" height="180" as="geometry" />
        </mxCell>
        <mxCell id="zIs3JP2xhRvC47rHNW2N-15" value="放入资源管理器" style="text;html=1;align=center;verticalAlign=middle;resizable=0;points=[];autosize=1;strokeColor=none;fillColor=none;" vertex="1" parent="1">
          <mxGeometry x="580" y="478" width="110" height="30" as="geometry" />
        </mxCell>
      </root>
    </mxGraphModel>
  </diagram>
</mxfile>
